<?xml version="1.0" encoding="UTF-8"?>
<!DOCTYPE svg PUBLIC "-//W3C//DTD SVG 1.1//EN" "http://www.w3.org/Graphics/SVG/1.1/DTD/svg11.dtd">
<svg xmlns="http://www.w3.org/2000/svg" version="1.1" width="256px" height="256px" style="shape-rendering:geometricPrecision; text-rendering:geometricPrecision; image-rendering:optimizeQuality; fill-rule:evenodd; clip-rule:evenodd" xmlns:xlink="http://www.w3.org/1999/xlink">
<g><path style="opacity:0.993" fill="#0173cc" d="M 113.5,-0.5 C 122.833,-0.5 132.167,-0.5 141.5,-0.5C 163.572,3.20181 182.239,13.2018 197.5,29.5C 192.062,32.0534 186.729,34.8867 181.5,38C 177.823,38.1078 174.157,38.1078 170.5,38C 168.999,39.2515 167.332,40.2515 165.5,41C 153.032,41.8186 142.032,46.1519 132.5,54C 128.878,54.9023 125.545,56.4023 122.5,58.5C 91.8085,41.2116 66.3085,47.2116 46,76.5C 41.5144,90.1578 37.3477,103.824 33.5,117.5C 32.8165,117.863 32.1499,118.196 31.5,118.5C 25.3177,75.4964 39.3177,40.9964 73.5,15C 85.9066,7.14747 99.2399,1.9808 113.5,-0.5 Z"/></g>
<g><path style="opacity:0.993" fill="#046cc0" d="M 197.5,29.5 C 214.363,46.5776 223.029,67.2442 223.5,91.5C 222.71,90.3915 222.21,89.0581 222,87.5C 220.846,88.7433 219.512,89.7433 218,90.5C 215.645,85.3658 213.145,80.3658 210.5,75.5C 209.624,74.7492 208.624,74.2492 207.5,74C 207.5,73 207.5,72 207.5,71C 202.644,67.3776 197.978,63.3776 193.5,59C 169.139,47.6187 148.473,52.2853 131.5,73C 127.629,75.0266 123.962,74.6933 120.5,72C 117.806,68.4492 114.472,65.9492 110.5,64.5C 96.7802,53.5522 82.4469,52.7188 67.5,62C 63.3058,65.5981 59.9724,69.7648 57.5,74.5C 57.19,73.2617 56.69,73.2617 56,74.5C 52.6768,80.802 50.3435,87.4687 49,94.5C 47.5722,108.827 46.2389,123.16 45,137.5C 43.7236,147.2 42.2236,156.7 40.5,166C 41.1196,174.474 41.4529,182.807 41.5,191C 40.4798,193.026 38.8132,194.359 36.5,195C 37.3081,197.088 38.3081,199.088 39.5,201C 36.6882,202.328 34.0216,203.828 31.5,205.5C 31.5,176.5 31.5,147.5 31.5,118.5C 32.1499,118.196 32.8165,117.863 33.5,117.5C 37.3477,103.824 41.5144,90.1578 46,76.5C 66.3085,47.2116 91.8085,41.2116 122.5,58.5C 125.545,56.4023 128.878,54.9023 132.5,54C 142.032,46.1519 153.032,41.8186 165.5,41C 167.332,40.2515 168.999,39.2515 170.5,38C 174.157,38.1078 177.823,38.1078 181.5,38C 186.729,34.8867 192.062,32.0534 197.5,29.5 Z"/></g>
<g><path style="opacity:1" fill="#0664b3" d="M 223.5,91.5 C 223.5,121.833 223.5,152.167 223.5,182.5C 222.503,182.53 221.836,182.03 221.5,181C 223.304,175.715 221.971,174.548 217.5,177.5C 217.167,177.167 216.833,176.833 216.5,176.5C 217.238,172.871 217.071,169.204 216,165.5C 215.333,166.167 214.667,166.833 214,167.5C 214.005,159.166 213.005,150.833 211,142.5C 208.992,124.12 206.659,105.786 204,87.5C 202.768,84.5883 201.268,81.9216 199.5,79.5C 189.617,57.0353 173.284,50.5353 150.5,60C 143.365,64.763 138.531,71.263 136,79.5C 135.5,91.8288 135.333,104.162 135.5,116.5C 135.5,117.833 135.5,119.167 135.5,120.5C 130.167,119.167 124.833,119.167 119.5,120.5C 119.5,119.167 119.5,117.833 119.5,116.5C 119.667,104.162 119.5,91.8288 119,79.5C 117.181,73.8548 114.348,68.8548 110.5,64.5C 114.472,65.9492 117.806,68.4492 120.5,72C 123.962,74.6933 127.629,75.0266 131.5,73C 148.473,52.2853 169.139,47.6187 193.5,59C 197.978,63.3776 202.644,67.3776 207.5,71C 207.5,72 207.5,73 207.5,74C 208.624,74.2492 209.624,74.7492 210.5,75.5C 213.145,80.3658 215.645,85.3658 218,90.5C 219.512,89.7433 220.846,88.7433 222,87.5C 222.21,89.0581 222.71,90.3915 223.5,91.5 Z"/></g>
<g><path style="opacity:1" fill="#fcfcfc" d="M 110.5,64.5 C 114.348,68.8548 117.181,73.8548 119,79.5C 119.5,91.8288 119.667,104.162 119.5,116.5C 95.4999,123.481 84.6666,139.481 87,164.5C 95.1515,191.329 112.985,201.829 140.5,196C 164.845,184.799 173.012,166.299 165,140.5C 159.163,127.488 149.33,119.488 135.5,116.5C 135.333,104.162 135.5,91.8288 136,79.5C 138.531,71.263 143.365,64.763 150.5,60C 173.284,50.5353 189.617,57.0353 199.5,79.5C 199.5,93.1667 199.5,106.833 199.5,120.5C 199.5,133.5 199.5,146.5 199.5,159.5C 184.446,197.985 156.113,215.485 114.5,212C 84.884,205.544 65.2173,188.044 55.5,159.5C 55.5,135.167 55.5,110.833 55.5,86.5C 55.3316,82.3425 55.9983,78.3425 57.5,74.5C 59.9724,69.7648 63.3058,65.5981 67.5,62C 82.4469,52.7188 96.7802,53.5522 110.5,64.5 Z"/></g>
<g><path style="opacity:1" fill="#030303" d="M 82.5,79.5 C 92.1214,78.0596 98.9548,81.7263 103,90.5C 104.167,105.333 97.3333,112.167 82.5,111C 71.9016,105.538 69.0683,97.3718 74,86.5C 76.4412,83.5464 79.2745,81.2131 82.5,79.5 Z"/></g>
<g><path style="opacity:1" fill="#030303" d="M 162.5,79.5 C 172.121,78.0596 178.955,81.7263 183,90.5C 184.167,105.333 177.333,112.167 162.5,111C 151.902,105.538 149.068,97.3718 154,86.5C 156.441,83.5464 159.275,81.2131 162.5,79.5 Z"/></g>
<g><path style="opacity:1" fill="#095ca8" d="M 199.5,79.5 C 201.268,81.9216 202.768,84.5883 204,87.5C 206.659,105.786 208.992,124.12 211,142.5C 213.005,150.833 214.005,159.166 214,167.5C 214.667,166.833 215.333,166.167 216,165.5C 217.071,169.204 217.238,172.871 216.5,176.5C 216.833,176.833 217.167,177.167 217.5,177.5C 221.971,174.548 223.304,175.715 221.5,181C 221.836,182.03 222.503,182.53 223.5,182.5C 223.667,204.836 223.5,227.169 223,249.5C 221.64,252.023 219.807,254.023 217.5,255.5C 176.833,255.5 136.167,255.5 95.5,255.5C 93.2585,254.379 90.9252,253.213 88.5,252C 90.5547,251.313 92.2214,250.146 93.5,248.5C 90.535,246.476 87.535,244.309 84.5,242C 84.9574,241.586 85.2907,241.086 85.5,240.5C 57.8434,216.489 46.3434,185.155 51,146.5C 52.3848,126.335 53.8848,106.335 55.5,86.5C 55.5,110.833 55.5,135.167 55.5,159.5C 55.6865,164.845 56.0199,170.178 56.5,175.5C 58.5992,191.359 64.7659,205.359 75,217.5C 75.6667,216.833 76.3333,216.167 77,215.5C 99.6017,238.934 125.435,245.768 154.5,236C 182.977,222.731 198.643,200.398 201.5,169C 200.869,152.682 200.203,136.515 199.5,120.5C 199.5,106.833 199.5,93.1667 199.5,79.5 Z"/></g>
<g><path style="opacity:1" fill="#fcc60d" d="M 55.5,159.5 C 65.2173,188.044 84.884,205.544 114.5,212C 156.113,215.485 184.446,197.985 199.5,159.5C 197.748,192.859 181.415,215.692 150.5,228C 116.124,237.209 88.2908,227.709 67,199.5C 62.6357,191.782 59.1357,183.782 56.5,175.5C 56.0199,170.178 55.6865,164.845 55.5,159.5 Z"/></g>
<g><path style="opacity:1" fill="#125495" d="M 199.5,120.5 C 200.203,136.515 200.869,152.682 201.5,169C 198.643,200.398 182.977,222.731 154.5,236C 125.435,245.768 99.6017,238.934 77,215.5C 76.3333,216.167 75.6667,216.833 75,217.5C 64.7659,205.359 58.5992,191.359 56.5,175.5C 59.1357,183.782 62.6357,191.782 67,199.5C 88.2908,227.709 116.124,237.209 150.5,228C 181.415,215.692 197.748,192.859 199.5,159.5C 199.5,146.5 199.5,133.5 199.5,120.5 Z"/></g>
<g><path style="opacity:1" fill="#f0f0f0" d="M 119.5,116.5 C 119.5,117.833 119.5,119.167 119.5,120.5C 115.948,121.276 112.614,122.609 109.5,124.5C 103.716,126.438 99.2157,130.104 96,135.5C 84.8212,156.276 88.3212,174.109 106.5,189C 130.13,200.305 148.63,194.805 162,172.5C 167.21,159.107 165.877,146.44 158,134.5C 156.223,132.21 154.056,130.543 151.5,129.5C 149.754,127.748 147.754,126.415 145.5,125.5C 142.765,122.799 139.431,121.132 135.5,120.5C 135.5,119.167 135.5,117.833 135.5,116.5C 149.33,119.488 159.163,127.488 165,140.5C 173.012,166.299 164.845,184.799 140.5,196C 112.985,201.829 95.1515,191.329 87,164.5C 84.6666,139.481 95.4999,123.481 119.5,116.5 Z"/></g>
<g><path style="opacity:1" fill="#e4e4e3" d="M 109.5,124.5 C 100.957,130.58 96.2899,138.913 95.5,149.5C 95.3303,164.977 102.33,175.643 116.5,181.5C 132.32,186.282 145.153,181.949 155,168.5C 157.076,165.107 158.242,161.44 158.5,157.5C 159.473,155.052 159.806,152.385 159.5,149.5C 159.041,141.921 156.375,135.254 151.5,129.5C 154.056,130.543 156.223,132.21 158,134.5C 165.877,146.44 167.21,159.107 162,172.5C 148.63,194.805 130.13,200.305 106.5,189C 88.3212,174.109 84.8212,156.276 96,135.5C 99.2157,130.104 103.716,126.438 109.5,124.5 Z"/></g>
<g><path style="opacity:1" fill="#b75c0e" d="M 158.5,157.5 C 158.242,161.44 157.076,165.107 155,168.5C 145.153,181.949 132.32,186.282 116.5,181.5C 130.5,173.5 144.5,165.5 158.5,157.5 Z"/></g>
<g><path style="opacity:1" fill="#c96609" d="M 95.5,149.5 C 97.4214,150.363 99.4214,151.029 101.5,151.5C 109.259,155.404 117.592,157.071 126.5,156.5C 138.112,156.845 149.112,154.511 159.5,149.5C 159.806,152.385 159.473,155.052 158.5,157.5C 144.5,165.5 130.5,173.5 116.5,181.5C 102.33,175.643 95.3303,164.977 95.5,149.5 Z"/></g>
<g><path style="opacity:1" fill="#ef8809" d="M 145.5,125.5 C 147.754,126.415 149.754,127.748 151.5,129.5C 156.375,135.254 159.041,141.921 159.5,149.5C 149.112,154.511 138.112,156.845 126.5,156.5C 117.592,157.071 109.259,155.404 101.5,151.5C 116.202,142.819 130.869,134.152 145.5,125.5 Z"/></g>
<g><path style="opacity:1" fill="#f29511" d="M 135.5,120.5 C 139.431,121.132 142.765,122.799 145.5,125.5C 130.869,134.152 116.202,142.819 101.5,151.5C 99.4214,151.029 97.4214,150.363 95.5,149.5C 96.2899,138.913 100.957,130.58 109.5,124.5C 112.614,122.609 115.948,121.276 119.5,120.5C 124.833,119.167 130.167,119.167 135.5,120.5 Z"/></g>
<g><path style="opacity:1" fill="#0664b5" d="M 57.5,74.5 C 55.9983,78.3425 55.3316,82.3425 55.5,86.5C 53.8848,106.335 52.3848,126.335 51,146.5C 46.3434,185.155 57.8434,216.489 85.5,240.5C 85.2907,241.086 84.9574,241.586 84.5,242C 87.535,244.309 90.535,246.476 93.5,248.5C 92.2214,250.146 90.5547,251.313 88.5,252C 90.9252,253.213 93.2585,254.379 95.5,255.5C 76.1667,255.5 56.8333,255.5 37.5,255.5C 35.193,254.023 33.3597,252.023 32,249.5C 31.5001,234.837 31.3334,220.17 31.5,205.5C 34.0216,203.828 36.6882,202.328 39.5,201C 38.3081,199.088 37.3081,197.088 36.5,195C 38.8132,194.359 40.4798,193.026 41.5,191C 41.4529,182.807 41.1196,174.474 40.5,166C 42.2236,156.7 43.7236,147.2 45,137.5C 46.2389,123.16 47.5722,108.827 49,94.5C 50.3435,87.4687 52.6768,80.802 56,74.5C 56.69,73.2617 57.19,73.2617 57.5,74.5 Z"/></g>
</svg>
